<mxfile host="app.diagrams.net" agent="Mozilla/5.0 (Windows NT 10.0; Win64; x64) AppleWebKit/537.36 (KHTML, like Gecko) Chrome/131.0.0.0 Safari/537.36" version="24.8.9">
  <diagram id="C5RBs43oDa-KdzZeNtuy" name="Page-1">
    <mxGraphModel dx="2368" dy="861" grid="1" gridSize="10" guides="1" tooltips="1" connect="1" arrows="1" fold="1" page="1" pageScale="1" pageWidth="827" pageHeight="1169" math="0" shadow="0">
      <root>
        <mxCell id="WIyWlLk6GJQsqaUBKTNV-0" />
        <mxCell id="WIyWlLk6GJQsqaUBKTNV-1" parent="WIyWlLk6GJQsqaUBKTNV-0" />
        <mxCell id="AWrgmrOuO5pUWe4rCcrW-7" value="Beállítások" style="rounded=0;whiteSpace=wrap;html=1;" vertex="1" parent="WIyWlLk6GJQsqaUBKTNV-1">
          <mxGeometry x="-750" y="230" width="120" height="60" as="geometry" />
        </mxCell>
        <mxCell id="AWrgmrOuO5pUWe4rCcrW-8" value="" style="rounded=0;whiteSpace=wrap;html=1;" vertex="1" parent="WIyWlLk6GJQsqaUBKTNV-1">
          <mxGeometry x="240" y="230" width="120" height="60" as="geometry" />
        </mxCell>
        <mxCell id="AWrgmrOuO5pUWe4rCcrW-11" value="" style="endArrow=classic;startArrow=classic;html=1;rounded=0;entryX=0;entryY=0.5;entryDx=0;entryDy=0;exitX=1;exitY=0.5;exitDx=0;exitDy=0;" edge="1" parent="WIyWlLk6GJQsqaUBKTNV-1" source="AWrgmrOuO5pUWe4rCcrW-7" target="AWrgmrOuO5pUWe4rCcrW-8">
          <mxGeometry width="50" height="50" relative="1" as="geometry">
            <mxPoint x="-590" y="285" as="sourcePoint" />
            <mxPoint x="-540" y="235" as="targetPoint" />
            <Array as="points">
              <mxPoint x="-200" y="260" />
            </Array>
          </mxGeometry>
        </mxCell>
        <mxCell id="AWrgmrOuO5pUWe4rCcrW-12" value="Nehézségi szint" style="rhombus;whiteSpace=wrap;html=1;" vertex="1" parent="WIyWlLk6GJQsqaUBKTNV-1">
          <mxGeometry x="-613" y="370" width="140" height="70" as="geometry" />
        </mxCell>
        <mxCell id="AWrgmrOuO5pUWe4rCcrW-15" value="Színtévesztő mód" style="rhombus;whiteSpace=wrap;html=1;" vertex="1" parent="WIyWlLk6GJQsqaUBKTNV-1">
          <mxGeometry x="-620" y="850" width="140" height="70" as="geometry" />
        </mxCell>
        <mxCell id="AWrgmrOuO5pUWe4rCcrW-17" value="" style="endArrow=classic;html=1;rounded=0;exitX=1;exitY=0.5;exitDx=0;exitDy=0;entryX=0;entryY=0.5;entryDx=0;entryDy=0;" edge="1" parent="WIyWlLk6GJQsqaUBKTNV-1" source="AWrgmrOuO5pUWe4rCcrW-15" target="AWrgmrOuO5pUWe4rCcrW-19">
          <mxGeometry width="50" height="50" relative="1" as="geometry">
            <mxPoint x="-440" y="890" as="sourcePoint" />
            <mxPoint x="-420" y="885" as="targetPoint" />
          </mxGeometry>
        </mxCell>
        <mxCell id="AWrgmrOuO5pUWe4rCcrW-18" value="Színözön" style="shape=trapezoid;perimeter=trapezoidPerimeter;whiteSpace=wrap;html=1;fixedSize=1;" vertex="1" parent="WIyWlLk6GJQsqaUBKTNV-1">
          <mxGeometry x="-262.5" y="80" width="120" height="60" as="geometry" />
        </mxCell>
        <mxCell id="AWrgmrOuO5pUWe4rCcrW-19" value="módosított rgb kódok" style="ellipse;whiteSpace=wrap;html=1;" vertex="1" parent="WIyWlLk6GJQsqaUBKTNV-1">
          <mxGeometry x="-440" y="862.5" width="130" height="45" as="geometry" />
        </mxCell>
        <mxCell id="AWrgmrOuO5pUWe4rCcrW-23" value="lásd: &quot;színtéveszéts rgb.txt&quot;" style="text;strokeColor=none;fillColor=none;align=left;verticalAlign=middle;spacingLeft=4;spacingRight=4;overflow=hidden;points=[[0,0.5],[1,0.5]];portConstraint=eastwest;rotatable=0;whiteSpace=wrap;html=1;" vertex="1" parent="WIyWlLk6GJQsqaUBKTNV-1">
          <mxGeometry x="-285" y="870" width="165" height="30" as="geometry" />
        </mxCell>
        <mxCell id="AWrgmrOuO5pUWe4rCcrW-24" value="data-lang" style="ellipse;whiteSpace=wrap;html=1;" vertex="1" parent="WIyWlLk6GJQsqaUBKTNV-1">
          <mxGeometry x="-350" y="1180" width="130" height="45" as="geometry" />
        </mxCell>
        <mxCell id="AWrgmrOuO5pUWe4rCcrW-28" value="standard" style="shape=hexagon;perimeter=hexagonPerimeter2;whiteSpace=wrap;html=1;fixedSize=1;" vertex="1" parent="WIyWlLk6GJQsqaUBKTNV-1">
          <mxGeometry x="-503" y="520" width="110" height="30" as="geometry" />
        </mxCell>
        <mxCell id="AWrgmrOuO5pUWe4rCcrW-29" value="közepes" style="shape=hexagon;perimeter=hexagonPerimeter2;whiteSpace=wrap;html=1;fixedSize=1;" vertex="1" parent="WIyWlLk6GJQsqaUBKTNV-1">
          <mxGeometry x="-501" y="570" width="110" height="30" as="geometry" />
        </mxCell>
        <mxCell id="AWrgmrOuO5pUWe4rCcrW-30" value="nehéz" style="shape=hexagon;perimeter=hexagonPerimeter2;whiteSpace=wrap;html=1;fixedSize=1;" vertex="1" parent="WIyWlLk6GJQsqaUBKTNV-1">
          <mxGeometry x="-501" y="620" width="110" height="30" as="geometry" />
        </mxCell>
        <mxCell id="AWrgmrOuO5pUWe4rCcrW-32" value="extrém" style="shape=hexagon;perimeter=hexagonPerimeter2;whiteSpace=wrap;html=1;fixedSize=1;" vertex="1" parent="WIyWlLk6GJQsqaUBKTNV-1">
          <mxGeometry x="-501" y="670" width="110" height="30" as="geometry" />
        </mxCell>
        <mxCell id="AWrgmrOuO5pUWe4rCcrW-33" value="" style="endArrow=classic;html=1;rounded=0;entryX=0;entryY=0.5;entryDx=0;entryDy=0;" edge="1" parent="WIyWlLk6GJQsqaUBKTNV-1" target="AWrgmrOuO5pUWe4rCcrW-28">
          <mxGeometry width="50" height="50" relative="1" as="geometry">
            <mxPoint x="-543" y="440" as="sourcePoint" />
            <mxPoint x="-488" y="490" as="targetPoint" />
            <Array as="points">
              <mxPoint x="-543" y="535" />
            </Array>
          </mxGeometry>
        </mxCell>
        <mxCell id="AWrgmrOuO5pUWe4rCcrW-35" value="" style="endArrow=classic;html=1;rounded=0;entryX=0;entryY=0.5;entryDx=0;entryDy=0;" edge="1" parent="WIyWlLk6GJQsqaUBKTNV-1" target="AWrgmrOuO5pUWe4rCcrW-29">
          <mxGeometry width="50" height="50" relative="1" as="geometry">
            <mxPoint x="-543" y="440" as="sourcePoint" />
            <mxPoint x="-421" y="510" as="targetPoint" />
            <Array as="points">
              <mxPoint x="-543" y="585" />
            </Array>
          </mxGeometry>
        </mxCell>
        <mxCell id="AWrgmrOuO5pUWe4rCcrW-36" value="" style="endArrow=classic;html=1;rounded=0;exitX=0.5;exitY=1;exitDx=0;exitDy=0;entryX=0;entryY=0.5;entryDx=0;entryDy=0;" edge="1" parent="WIyWlLk6GJQsqaUBKTNV-1" source="AWrgmrOuO5pUWe4rCcrW-12" target="AWrgmrOuO5pUWe4rCcrW-30">
          <mxGeometry width="50" height="50" relative="1" as="geometry">
            <mxPoint x="-473" y="445" as="sourcePoint" />
            <mxPoint x="-435.5" y="530" as="targetPoint" />
            <Array as="points">
              <mxPoint x="-543" y="635" />
            </Array>
          </mxGeometry>
        </mxCell>
        <mxCell id="AWrgmrOuO5pUWe4rCcrW-37" value="" style="endArrow=classic;html=1;rounded=0;exitX=0.5;exitY=1;exitDx=0;exitDy=0;entryX=0;entryY=0.5;entryDx=0;entryDy=0;" edge="1" parent="WIyWlLk6GJQsqaUBKTNV-1" source="AWrgmrOuO5pUWe4rCcrW-12" target="AWrgmrOuO5pUWe4rCcrW-32">
          <mxGeometry width="50" height="50" relative="1" as="geometry">
            <mxPoint x="-473" y="445" as="sourcePoint" />
            <mxPoint x="-461" y="590" as="targetPoint" />
            <Array as="points">
              <mxPoint x="-543" y="685" />
            </Array>
          </mxGeometry>
        </mxCell>
        <mxCell id="AWrgmrOuO5pUWe4rCcrW-38" value="" style="endArrow=classic;html=1;rounded=0;exitX=1;exitY=0.5;exitDx=0;exitDy=0;entryX=0;entryY=0.5;entryDx=0;entryDy=0;" edge="1" parent="WIyWlLk6GJQsqaUBKTNV-1" source="AWrgmrOuO5pUWe4rCcrW-28" target="AWrgmrOuO5pUWe4rCcrW-39">
          <mxGeometry width="50" height="50" relative="1" as="geometry">
            <mxPoint x="-283" y="460" as="sourcePoint" />
            <mxPoint x="-243" y="445" as="targetPoint" />
          </mxGeometry>
        </mxCell>
        <mxCell id="AWrgmrOuO5pUWe4rCcrW-39" value="4x12 grid" style="ellipse;whiteSpace=wrap;html=1;" vertex="1" parent="WIyWlLk6GJQsqaUBKTNV-1">
          <mxGeometry x="-313" y="517.5" width="120" height="35" as="geometry" />
        </mxCell>
        <mxCell id="AWrgmrOuO5pUWe4rCcrW-40" value="" style="endArrow=classic;html=1;rounded=0;exitX=1;exitY=0.5;exitDx=0;exitDy=0;entryX=0;entryY=0.5;entryDx=0;entryDy=0;" edge="1" parent="WIyWlLk6GJQsqaUBKTNV-1" target="AWrgmrOuO5pUWe4rCcrW-41" source="AWrgmrOuO5pUWe4rCcrW-29">
          <mxGeometry width="50" height="50" relative="1" as="geometry">
            <mxPoint x="-393" y="575" as="sourcePoint" />
            <mxPoint x="-243" y="497.5" as="targetPoint" />
          </mxGeometry>
        </mxCell>
        <mxCell id="AWrgmrOuO5pUWe4rCcrW-41" value="4x8 grid" style="ellipse;whiteSpace=wrap;html=1;" vertex="1" parent="WIyWlLk6GJQsqaUBKTNV-1">
          <mxGeometry x="-313" y="567.5" width="120" height="35" as="geometry" />
        </mxCell>
        <mxCell id="AWrgmrOuO5pUWe4rCcrW-42" value="" style="endArrow=classic;html=1;rounded=0;exitX=1;exitY=0.5;exitDx=0;exitDy=0;entryX=0;entryY=0.5;entryDx=0;entryDy=0;" edge="1" parent="WIyWlLk6GJQsqaUBKTNV-1" source="AWrgmrOuO5pUWe4rCcrW-30" target="AWrgmrOuO5pUWe4rCcrW-43">
          <mxGeometry width="50" height="50" relative="1" as="geometry">
            <mxPoint x="-323" y="675" as="sourcePoint" />
            <mxPoint x="-313" y="635" as="targetPoint" />
          </mxGeometry>
        </mxCell>
        <mxCell id="AWrgmrOuO5pUWe4rCcrW-43" value="5x10 grid" style="ellipse;whiteSpace=wrap;html=1;" vertex="1" parent="WIyWlLk6GJQsqaUBKTNV-1">
          <mxGeometry x="-313" y="617.5" width="120" height="35" as="geometry" />
        </mxCell>
        <mxCell id="AWrgmrOuO5pUWe4rCcrW-44" value="5x10 grid + színek váltakoznak" style="ellipse;whiteSpace=wrap;html=1;" vertex="1" parent="WIyWlLk6GJQsqaUBKTNV-1">
          <mxGeometry x="-313" y="667.5" width="200" height="35" as="geometry" />
        </mxCell>
        <mxCell id="AWrgmrOuO5pUWe4rCcrW-45" value="" style="endArrow=classic;html=1;rounded=0;exitX=1;exitY=0.5;exitDx=0;exitDy=0;entryX=0;entryY=0.5;entryDx=0;entryDy=0;" edge="1" parent="WIyWlLk6GJQsqaUBKTNV-1" source="AWrgmrOuO5pUWe4rCcrW-32" target="AWrgmrOuO5pUWe4rCcrW-44">
          <mxGeometry width="50" height="50" relative="1" as="geometry">
            <mxPoint x="-293" y="680" as="sourcePoint" />
            <mxPoint x="-243" y="630" as="targetPoint" />
          </mxGeometry>
        </mxCell>
        <mxCell id="AWrgmrOuO5pUWe4rCcrW-47" value="&lt;div&gt;&lt;span style=&quot;background-color: initial;&quot;&gt;pl. ami eddig kék volt az piros lesz, kitalálandó kombináció is eszerint változik (30mp)&lt;/span&gt;&lt;/div&gt;" style="text;html=1;align=center;verticalAlign=middle;whiteSpace=wrap;rounded=0;" vertex="1" parent="WIyWlLk6GJQsqaUBKTNV-1">
          <mxGeometry x="-320" y="730" width="200" height="30" as="geometry" />
        </mxCell>
        <mxCell id="AWrgmrOuO5pUWe4rCcrW-49" value="&lt;h1 style=&quot;margin-top: 0px;&quot;&gt;grid&lt;/h1&gt;&lt;p&gt;(kitalálandó színek száma)x(próbálkozási lehetőségek száma)&lt;/p&gt;" style="text;html=1;whiteSpace=wrap;overflow=hidden;rounded=0;" vertex="1" parent="WIyWlLk6GJQsqaUBKTNV-1">
          <mxGeometry x="-170" y="522.5" width="250" height="80" as="geometry" />
        </mxCell>
        <mxCell id="AWrgmrOuO5pUWe4rCcrW-50" value="Beszédfelismerés?" style="rhombus;whiteSpace=wrap;html=1;" vertex="1" parent="WIyWlLk6GJQsqaUBKTNV-1">
          <mxGeometry x="-613" y="1350" width="140" height="70" as="geometry" />
        </mxCell>
        <mxCell id="AWrgmrOuO5pUWe4rCcrW-51" value="" style="endArrow=classic;html=1;rounded=0;exitX=1;exitY=0.5;exitDx=0;exitDy=0;entryX=0;entryY=0.5;entryDx=0;entryDy=0;" edge="1" parent="WIyWlLk6GJQsqaUBKTNV-1" source="AWrgmrOuO5pUWe4rCcrW-50" target="AWrgmrOuO5pUWe4rCcrW-52">
          <mxGeometry width="50" height="50" relative="1" as="geometry">
            <mxPoint x="-280" y="1260" as="sourcePoint" />
            <mxPoint x="-230" y="1210" as="targetPoint" />
          </mxGeometry>
        </mxCell>
        <mxCell id="AWrgmrOuO5pUWe4rCcrW-52" value="SpeechRecognition API" style="ellipse;whiteSpace=wrap;html=1;" vertex="1" parent="WIyWlLk6GJQsqaUBKTNV-1">
          <mxGeometry x="-435.5" y="1362.5" width="145.5" height="45" as="geometry" />
        </mxCell>
        <mxCell id="AWrgmrOuO5pUWe4rCcrW-58" value="Nyelv?" style="rhombus;whiteSpace=wrap;html=1;" vertex="1" parent="WIyWlLk6GJQsqaUBKTNV-1">
          <mxGeometry x="-613" y="1010" width="140" height="70" as="geometry" />
        </mxCell>
        <mxCell id="AWrgmrOuO5pUWe4rCcrW-59" value="angol" style="shape=hexagon;perimeter=hexagonPerimeter2;whiteSpace=wrap;html=1;fixedSize=1;" vertex="1" parent="WIyWlLk6GJQsqaUBKTNV-1">
          <mxGeometry x="-503" y="1160" width="110" height="30" as="geometry" />
        </mxCell>
        <mxCell id="AWrgmrOuO5pUWe4rCcrW-60" value="magyar" style="shape=hexagon;perimeter=hexagonPerimeter2;whiteSpace=wrap;html=1;fixedSize=1;" vertex="1" parent="WIyWlLk6GJQsqaUBKTNV-1">
          <mxGeometry x="-501" y="1210" width="110" height="30" as="geometry" />
        </mxCell>
        <mxCell id="AWrgmrOuO5pUWe4rCcrW-61" value="" style="endArrow=classic;html=1;rounded=0;exitX=0.5;exitY=1;exitDx=0;exitDy=0;entryX=0;entryY=0.5;entryDx=0;entryDy=0;" edge="1" parent="WIyWlLk6GJQsqaUBKTNV-1" source="AWrgmrOuO5pUWe4rCcrW-58" target="AWrgmrOuO5pUWe4rCcrW-59">
          <mxGeometry width="50" height="50" relative="1" as="geometry">
            <mxPoint x="-773" y="1060" as="sourcePoint" />
            <mxPoint x="-723" y="1010" as="targetPoint" />
            <Array as="points">
              <mxPoint x="-543" y="1175" />
            </Array>
          </mxGeometry>
        </mxCell>
        <mxCell id="AWrgmrOuO5pUWe4rCcrW-62" value="" style="endArrow=classic;html=1;rounded=0;exitX=0.5;exitY=1;exitDx=0;exitDy=0;entryX=0;entryY=0.5;entryDx=0;entryDy=0;" edge="1" parent="WIyWlLk6GJQsqaUBKTNV-1" source="AWrgmrOuO5pUWe4rCcrW-58" target="AWrgmrOuO5pUWe4rCcrW-60">
          <mxGeometry width="50" height="50" relative="1" as="geometry">
            <mxPoint x="-533" y="1090" as="sourcePoint" />
            <mxPoint x="-493" y="1185" as="targetPoint" />
            <Array as="points">
              <mxPoint x="-543" y="1225" />
            </Array>
          </mxGeometry>
        </mxCell>
        <mxCell id="AWrgmrOuO5pUWe4rCcrW-63" value="" style="endArrow=classic;html=1;rounded=0;exitX=1;exitY=0.5;exitDx=0;exitDy=0;entryX=0;entryY=0;entryDx=0;entryDy=0;" edge="1" parent="WIyWlLk6GJQsqaUBKTNV-1" source="AWrgmrOuO5pUWe4rCcrW-59" target="AWrgmrOuO5pUWe4rCcrW-24">
          <mxGeometry width="50" height="50" relative="1" as="geometry">
            <mxPoint x="-350" y="1020" as="sourcePoint" />
            <mxPoint x="-300" y="970" as="targetPoint" />
          </mxGeometry>
        </mxCell>
        <mxCell id="AWrgmrOuO5pUWe4rCcrW-64" value="" style="endArrow=classic;html=1;rounded=0;exitX=1;exitY=0.5;exitDx=0;exitDy=0;entryX=0;entryY=1;entryDx=0;entryDy=0;" edge="1" parent="WIyWlLk6GJQsqaUBKTNV-1" source="AWrgmrOuO5pUWe4rCcrW-60" target="AWrgmrOuO5pUWe4rCcrW-24">
          <mxGeometry width="50" height="50" relative="1" as="geometry">
            <mxPoint x="-350" y="1020" as="sourcePoint" />
            <mxPoint x="-300" y="970" as="targetPoint" />
          </mxGeometry>
        </mxCell>
        <mxCell id="AWrgmrOuO5pUWe4rCcrW-71" value="" style="shape=flexArrow;endArrow=classic;html=1;rounded=0;exitX=0.5;exitY=1;exitDx=0;exitDy=0;entryX=0;entryY=0.5;entryDx=0;entryDy=0;" edge="1" parent="WIyWlLk6GJQsqaUBKTNV-1" source="AWrgmrOuO5pUWe4rCcrW-7" target="AWrgmrOuO5pUWe4rCcrW-50">
          <mxGeometry width="50" height="50" relative="1" as="geometry">
            <mxPoint x="-460" y="1310" as="sourcePoint" />
            <mxPoint x="-410" y="1260" as="targetPoint" />
            <Array as="points">
              <mxPoint x="-690" y="1385" />
            </Array>
          </mxGeometry>
        </mxCell>
        <mxCell id="AWrgmrOuO5pUWe4rCcrW-75" value="" style="shape=flexArrow;endArrow=classic;html=1;rounded=0;entryX=0;entryY=0.5;entryDx=0;entryDy=0;" edge="1" parent="WIyWlLk6GJQsqaUBKTNV-1" target="AWrgmrOuO5pUWe4rCcrW-58">
          <mxGeometry width="50" height="50" relative="1" as="geometry">
            <mxPoint x="-690" y="290" as="sourcePoint" />
            <mxPoint x="-603" y="1395" as="targetPoint" />
            <Array as="points">
              <mxPoint x="-690" y="1045" />
            </Array>
          </mxGeometry>
        </mxCell>
        <mxCell id="AWrgmrOuO5pUWe4rCcrW-76" value="" style="shape=flexArrow;endArrow=classic;html=1;rounded=0;entryX=0;entryY=0.5;entryDx=0;entryDy=0;" edge="1" parent="WIyWlLk6GJQsqaUBKTNV-1" target="AWrgmrOuO5pUWe4rCcrW-15">
          <mxGeometry width="50" height="50" relative="1" as="geometry">
            <mxPoint x="-690" y="290" as="sourcePoint" />
            <mxPoint x="-603" y="1055" as="targetPoint" />
            <Array as="points">
              <mxPoint x="-690" y="885" />
            </Array>
          </mxGeometry>
        </mxCell>
        <mxCell id="AWrgmrOuO5pUWe4rCcrW-77" value="" style="shape=flexArrow;endArrow=classic;html=1;rounded=0;exitX=0.5;exitY=1;exitDx=0;exitDy=0;entryX=0;entryY=0.5;entryDx=0;entryDy=0;" edge="1" parent="WIyWlLk6GJQsqaUBKTNV-1" source="AWrgmrOuO5pUWe4rCcrW-7" target="AWrgmrOuO5pUWe4rCcrW-12">
          <mxGeometry width="50" height="50" relative="1" as="geometry">
            <mxPoint x="-620" y="430" as="sourcePoint" />
            <mxPoint x="-570" y="380" as="targetPoint" />
            <Array as="points">
              <mxPoint x="-690" y="405" />
            </Array>
          </mxGeometry>
        </mxCell>
        <mxCell id="AWrgmrOuO5pUWe4rCcrW-79" value="" style="endArrow=none;html=1;rounded=0;exitX=0.5;exitY=1;exitDx=0;exitDy=0;" edge="1" parent="WIyWlLk6GJQsqaUBKTNV-1" source="AWrgmrOuO5pUWe4rCcrW-18">
          <mxGeometry width="50" height="50" relative="1" as="geometry">
            <mxPoint x="-260" y="370" as="sourcePoint" />
            <mxPoint x="-202" y="260" as="targetPoint" />
          </mxGeometry>
        </mxCell>
      </root>
    </mxGraphModel>
  </diagram>
</mxfile>
